<mxfile host="app.diagrams.net" modified="2024-08-04T18:33:58.399Z" agent="Mozilla/5.0 (Macintosh; Intel Mac OS X 10_15_7) AppleWebKit/537.36 (KHTML, like Gecko) Chrome/127.0.0.0 Safari/537.36" version="24.6.4" etag="XbUnLoqnm9UTmhjTeI-2" type="github">
  <diagram name="Page-1" id="lltRGpPVIRptGEJYeK86">
    <mxGraphModel>
      <root>
        <mxCell id="0" />
        <mxCell id="1" parent="0" />
      </root>
    </mxGraphModel>
  </diagram>
</mxfile>
